<svg width="27" height="30" viewBox="0 0 27 30" fill="none" xmlns="http://www.w3.org/2000/svg">
<path d="M22.25 20.917C21.1417 20.917 20.15 21.3446 19.3917 22.0144L8.99375 16.0999C9.06667 15.7721 9.125 15.4443 9.125 15.1023C9.125 14.7602 9.06667 14.4324 8.99375 14.1046L19.275 8.24711C20.0625 8.9597 21.0979 9.40151 22.25 9.40151C24.6708 9.40151 26.625 7.49176 26.625 5.12594C26.625 2.76013 24.6708 0.850372 22.25 0.850372C19.8292 0.850372 17.875 2.76013 17.875 5.12594C17.875 5.46799 17.9333 5.79578 18.0063 6.12357L7.725 11.9811C6.9375 11.2685 5.90208 10.8267 4.75 10.8267C2.32917 10.8267 0.375 12.7365 0.375 15.1023C0.375 17.4681 2.32917 19.3778 4.75 19.3778C5.90208 19.3778 6.9375 18.936 7.725 18.2234L18.1083 24.1522C18.0354 24.4515 17.9917 24.7651 17.9917 25.0786C17.9917 27.3731 19.9021 29.2401 22.25 29.2401C24.5979 29.2401 26.5083 27.3731 26.5083 25.0786C26.5083 22.784 24.5979 20.917 22.25 20.917Z" fill="black" fill-opacity="0.87"/>
</svg>
