<svg width="23" height="25" viewBox="0 0 23 25" fill="none" xmlns="http://www.w3.org/2000/svg">
<path fill-rule="evenodd" clip-rule="evenodd" d="M16.5653 3.74977H16.1135C16.1135 1.67912 14.457 0 12.4992 0H9.93916C7.83085 0 6.17433 1.67912 6.17433 3.74977H5.42136H4.96958H1.20475C0.45178 3.74977 0 4.30998 0 4.9997C0 5.69092 0.45178 6.24962 1.20475 6.24962H2.40949V21.2502C2.40949 23.3209 4.06602 25 6.17433 25H16.1135C18.2218 25 19.8783 23.3209 19.8783 21.2502V6.24962H21.2337C21.836 6.24962 22.4384 5.69092 22.4384 4.9997C22.4384 4.30998 21.836 3.74977 21.2337 3.74977H17.4688H16.5653ZM17.469 6.24963H14.9089H13.7042H8.73459H7.37925H4.96976V8.74948V21.2502C4.96976 21.94 5.42154 22.5002 6.1745 22.5002H16.1137C16.8666 22.5002 17.469 21.94 17.469 21.2502V8.74948V6.24963ZM8.73433 3.74981H9.93907H11.1438H12.4992H13.7039C13.7039 3.0601 13.1015 2.49989 12.4992 2.49989H9.93907C9.18611 2.49989 8.73433 3.0601 8.73433 3.74981ZM14.6079 10.3654C15.0596 10.8548 15.0596 11.6454 14.6079 12.1333L12.9513 13.7492L14.6079 15.3666C15.0596 15.8545 15.0596 16.6451 14.6079 17.133C14.0055 17.6225 13.2525 17.6225 12.8007 17.133L11.1442 15.5172L9.63828 17.133C9.03591 17.6225 8.28294 17.6225 7.83116 17.133C7.37938 16.6451 7.37938 15.8545 7.83116 15.3666L9.48769 13.7492L7.83116 12.1333C7.37938 11.6454 7.37938 10.8548 7.83116 10.3654C8.28294 9.87746 9.03591 9.87746 9.63828 10.3654L11.1442 11.9828L12.8007 10.3654C13.2525 9.87746 14.0055 9.87746 14.6079 10.3654Z" fill="#FF0000"/>
</svg>
